#!OML:ASF C:\ViconDB\ViconDB\414\Spring2016\041811\Spring2016.ASF
:FULLY-SPECIFIED
:DEGREES
155
root 8.3153 17.4271 -11.5542 -169.337 -1.42665 -181.493
lowerback 12.0834 -0.888533 -3.94952
upperback -0.304556 -1.81092 -0.0788124
thorax -6.99659 -0.769647 2.47172
lowerneck -11.7276 -6.80771 -15.8215
upperneck 8.48902 -8.76513 21.0061
head 6.23844 -3.34078 8.71706
rclavicle 9.19379e-015 8.34896e-015
rhumerus -9.66715 13.6891 -56.3321
rradius 116.873
rwrist -4.81477
rhand -36.7076 -16.4033
rfingers 7.12502
rthumb -9.79254 -46.1556
lclavicle 9.19379e-015 8.34896e-015
lhumerus -6.35612 4.52738 50.8209
lradius 105.032
lwrist 5.99283
lhand -34.2078 14.1436
lfingers 7.12502
lthumb -7.38012 43.9948
rfemur -14.6746 -16.8089 13.7683
rtibia 51.9947
rfoot -8.0327 -1.13279
rtoes -3.39489
lfemur -17.7324 4.89085 -15.7209
ltibia 49.3665
lfoot -21.6127 0.685586
ltoes -27.9248
156
root 8.2945 17.7506 -11.9654 -169.981 -1.21297 -181.606
lowerback 10.7695 -1.02175 -4.38693
upperback -0.701017 -1.97683 -0.139386
thorax -6.65145 -0.831085 2.64802
lowerneck -11.1977 -6.48559 -15.1333
upperneck 10.008 -8.58017 20.2217
head 6.49223 -3.26514 8.38077
rclavicle 3.42904e-015 6.16232e-015
rhumerus -8.56707 14.0581 -54.8412
rradius 118.235
rwrist -6.31021
rhand -35.7966 -17.4888
rfingers 7.12502
rthumb -8.91354 -47.2806
lclavicle 3.42904e-015 6.16232e-015
lhumerus -5.42141 5.5538 49.2162
lradius 105.559
lwrist 6.44086
lhand -34.0852 14.4998
lfingers 7.12502
lthumb -7.26184 44.3552
rfemur -12.5726 -16.0768 13.2922
rtibia 50.373
rfoot -11.1949 3.04901
rtoes -5.35958
lfemur -14.0264 3.86945 -15.8698
ltibia 45.7031
lfoot -16.9335 1.63841
ltoes -28.988
157
root 8.2734 18.0823 -12.3651 -170.676 -1.04208 -181.578
lowerback 9.70125 -0.932438 -4.60255
upperback -0.87974 -1.80717 0.0515706
thorax -6.23517 -0.740111 2.91507
lowerneck -11.0524 -6.51578 -15.5427
upperneck 11.1516 -8.68356 19.9721
head 6.84242 -3.33232 8.38765
rclavicle 1.51076e-014 5.96354e-016
rhumerus -7.26585 13.9192 -52.4616
rradius 119.508
rwrist -8.18725
rhand -35.6343 -18.1084
rfingers 7.12502
rthumb -8.75692 -47.9067
lclavicle 1.51076e-014 5.96354e-016
lhumerus -4.12851 5.85883 48.0828
lradius 106.043
lwrist 7.68192
lhand -34.642 14.6034
lfingers 7.12502
lthumb -7.79921 44.4395
rfemur -10.8644 -15.8198 12.98
rtibia 49.0305
rfoot -14.6144 7.46766
rtoes -7.83148
lfemur -10.648 2.93218 -15.938
ltibia 42.2386
lfoot -11.2839 2.9665
ltoes -28.3021
158
root 8.25788 18.4123 -12.7446 -171.385 -1.08879 -181.639
lowerback 8.837 -0.890633 -5.01448
upperback -0.996977 -1.73574 0.222693
thorax -5.85831 -0.694188 3.29348
lowerneck -10.7574 -6.51303 -15.626
upperneck 11.9556 -8.74036 19.616
head 7.03356 -3.38369 8.29545
rclavicle 9.69075e-015 1.88845e-015
rhumerus -6.29693 13.7385 -50.5197
rradius 120.787
rwrist -9.94257
rhand -35.6705 -19.1268
rfingers 7.12502
rthumb -8.79183 -48.9237
lclavicle 9.69075e-015 1.88845e-015
lhumerus -2.79544 6.21018 47.0442
lradius 106.784
lwrist 8.77904
lhand -34.8363 15.3938
lfingers 7.12502
lthumb -7.98676 45.2229
rfemur -9.43289 -15.7826 12.6812
rtibia 47.8471
rfoot -18.0391 11.9586
rtoes -9.95706
lfemur -7.83323 1.84981 -16.1205
ltibia 39.0404
lfoot -5.01013 4.8263
ltoes -27.1073
159
root 8.24186 18.743 -13.1154 -171.991 -1.12944 -181.719
lowerback 8.26849 -0.86819 -5.28181
upperback -1.25186 -1.70315 0.238038
thorax -5.80067 -0.664356 3.44376
lowerneck -10.3557 -6.54561 -15.7165
upperneck 12.6898 -8.86736 19.5534
head 7.21621 -3.44415 8.30525
rclavicle 1.13307e-014 -9.93923e-017
rhumerus -6.1186 13.1065 -49.3212
rradius 122.245
rwrist -12.6065
rhand -35.094 -18.5218
rfingers 7.12502
rthumb -8.23547 -48.3413
lclavicle 1.13307e-014 -9.93923e-017
lhumerus -1.7527 6.28025 45.955
lradius 107.335
lwrist 9.78522
lhand -35.1682 15.6314
lfingers 7.12502
lthumb -8.30707 45.448
rfemur -8.27855 -15.785 12.3765
rtibia 46.8124
rfoot -20.3909 15.5586
rtoes -11.7263
lfemur -5.56759 0.760699 -16.384
ltibia 36.1395
lfoot 1.2273 6.9331
ltoes -25.2986
160
root 8.2348 19.0754 -13.4769 -172.466 -1.30088 -181.778
lowerback 7.7156 -0.872125 -5.61575
upperback -1.47442 -1.70924 0.298802
thorax -5.71091 -0.652823 3.68423
lowerneck -10.0863 -6.59605 -15.7812
upperneck 13.4358 -8.99847 19.4315
head 7.42462 -3.50285 8.28792
rclavicle 1.86361e-016 -1.00386e-014
rhumerus -5.7253 12.6699 -48.0464
rradius 123.305
rwrist -14.3165
rhand -35.0327 -19.035
rfingers 7.12502
rthumb -8.17636 -48.8568
lclavicle 1.86361e-016 -1.00386e-014
lhumerus -0.713948 6.29026 44.9399
lradius 107.724
lwrist 10.4475
lhand -35.5141 15.6331
lfingers 7.12502
lthumb -8.64093 45.4362
rfemur -7.42629 -15.6266 12.3401
rtibia 45.8559
rfoot -22.1044 19.3785
rtoes -13.1298
lfemur -3.72286 -0.259496 -16.5499
ltibia 33.7665
lfoot 6.49339 9.0343
ltoes -18.5622
161
root 8.22925 19.3915 -13.828 -172.689 -1.50244 -181.848
lowerback 7.0196 -0.962876 -6.04324
upperback -1.71662 -1.82655 0.411984
thorax -5.54389 -0.694933 4.04087
lowerneck -9.97019 -6.62051 -15.853
upperneck 14.2619 -9.07398 19.2772
head 7.67637 -3.52869 8.2691
rclavicle 3.83903e-015 1.75924e-014
rhumerus -5.31083 12.2564 -47.0444
rradius 124.287
rwrist -16.2928
rhand -35.1797 -19.901
rfingers 7.12502
rthumb -8.31817 -49.7173
lclavicle 3.83903e-015 1.75924e-014
lhumerus -0.107609 6.50513 44.1471
lradius 108.071
lwrist 10.8641
lhand -35.7054 15.3032
lfingers 7.12502
lthumb -8.82555 45.0986
rfemur -6.86165 -15.2936 12.4478
rtibia 44.9632
rfoot -22.8205 21.7597
rtoes -14.8389
lfemur -2.57246 -1.05625 -16.6894
ltibia 32.1556
lfoot 10.9026 10.6755
ltoes -11.3567
162
root 8.22444 19.6721 -14.1585 -172.847 -1.64867 -181.811
lowerback 6.64881 -1.03222 -6.02224
upperback -2.13744 -1.91892 0.305659
thorax -5.77145 -0.728925 3.92388
lowerneck -9.74087 -6.57124 -15.6756
upperneck 15.185 -9.08316 19.1229
head 7.91554 -3.50028 8.22255
rclavicle 5.25537e-015 5.96354e-015
rhumerus -5.44993 12.0723 -46.6132
rradius 125.237
rwrist -17.2607
rhand -35.0264 -20.5721
rfingers 7.12502
rthumb -8.17021 -50.3941
lclavicle 5.25537e-015 5.96354e-015
lhumerus 0.44467 6.30394 43.1837
lradius 108.002
lwrist 10.9779
lhand -35.9121 15.1113
lfingers 7.12502
lthumb -9.02498 44.8982
rfemur -6.20863 -14.7316 12.6753
rtibia 44.1033
rfoot -23.14 21.4724
rtoes -15.6018
lfemur -2.06006 -1.39941 -16.7127
ltibia 31.4264
lfoot 13.9796 10.9479
ltoes -4.55815
163
root 8.22152 19.9161 -14.4634 -172.866 -1.87817 -181.768
lowerback 6.27515 -1.12483 -6.03207
upperback -2.52611 -2.04272 0.277097
thorax -5.95701 -0.779453 3.90837
lowerneck -9.95158 -6.55448 -15.1951
upperneck 16.4806 -9.06355 18.2253
head 8.30073 -3.48087 7.85542
rclavicle 3.09483e-014 1.68967e-014
rhumerus -5.66144 11.9139 -46.3162
rradius 125.874
rwrist -17.5303
rhand -34.9343 -21.0585
rfingers 7.12502
rthumb -8.0814 -50.884
lclavicle 3.09483e-014 1.68967e-014
lhumerus 0.698794 6.18281 42.5791
lradius 107.813
lwrist 10.8626
lhand -36.032 14.3627
lfingers 7.12502
lthumb -9.1407 44.1446
rfemur -5.7345 -14.2896 12.9271
rtibia 43.3049
rfoot -23.2338 20.0004
rtoes -15.2393
lfemur -2.25663 -1.20462 -16.6216
ltibia 31.5218
lfoot 14.6223 10.1417
ltoes -4.00916
164
root 8.21651 20.1415 -14.7606 -172.974 -2.11028 -181.855
lowerback 5.68147 -1.22735 -6.2416
upperback -2.58438 -2.1641 0.265631
thorax -5.65988 -0.84375 4.00722
lowerneck -9.8886 -6.57837 -15.2129
upperneck 17.0669 -9.09181 17.9742
head 8.47535 -3.49695 7.78822
rclavicle -5.86415e-015 7.25564e-015
rhumerus -5.52908 11.6558 -46.2092
rradius 125.9
rwrist -16.8888
rhand -34.7411 -19.6219
rfingers 7.12502
rthumb -7.8949 -49.4545
lclavicle -5.86415e-015 7.25564e-015
lhumerus 0.975489 6.46366 42.4636
lradius 107.474
lwrist 10.5044
lhand -35.874 13.8608
lfingers 7.12502
lthumb -8.98819 43.6493
rfemur -5.30651 -14.4218 12.8516
rtibia 42.6263
rfoot -23.5451 17.954
rtoes -15.6831
lfemur -2.68254 -0.924808 -16.6673
ltibia 32.1447
lfoot 14.0084 9.52431
ltoes -3.71542
165
root 8.20576 20.3521 -15.0548 -173.118 -2.26145 -181.765
lowerback 5.21177 -1.24555 -6.14932
upperback -2.63812 -2.15318 0.269478
thorax -5.45175 -0.849783 3.94314
lowerneck -9.57187 -6.68094 -15.5546
upperneck 17.3888 -9.24049 18.0842
head 8.57493 -3.57673 7.89231
rclavicle 1.87603e-015 -2.56432e-014
rhumerus -5.80243 11.3072 -46.3953
rradius 125.792
rwrist -16.2418
rhand -34.9352 -19.3039
rfingers 7.12502
rthumb -8.08222 -49.1294
lclavicle 1.87603e-015 -2.56432e-014
lhumerus 1.12691 6.29643 42.254
lradius 107.089
lwrist 9.77557
lhand -35.7971 13.7263
lfingers 7.12502
lthumb -8.91405 43.518
rfemur -5.05465 -14.813 12.9321
rtibia 42.0127
rfoot -24.031 16.2745
rtoes -15.8276
lfemur -3.17947 -0.332927 -16.524
ltibia 32.8702
lfoot 13.5893 9.08546
ltoes -3.34649
166
root 8.18495 20.554 -15.3364 -173.277 -2.14234 -181.569
lowerback 4.94223 -1.17524 -5.82557
upperback -2.66993 -2.02254 0.218795
thorax -5.35615 -0.80162 3.68828
lowerneck -9.35406 -6.80973 -15.6405
upperneck 17.7279 -9.42399 17.9642
head 8.68088 -3.673 7.85798
rclavicle -6.27414e-015 -6.16232e-015
rhumerus -6.11789 11.2042 -46.9478
rradius 125.607
rwrist -15.5717
rhand -35.4133 -19.4983
rfingers 7.12502
rthumb -8.5436 -49.3055
lclavicle -6.27414e-015 -6.16232e-015
lhumerus 1.18517 6.18011 42.4885
lradius 106.556
lwrist 9.39395
lhand -35.4235 13.3716
lfingers 7.12502
lthumb -8.55351 43.1783
rfemur -5.10627 -15.2637 13.1383
rtibia 41.4726
rfoot -24.5517 15.0166
rtoes -15.8261
lfemur -3.62343 0.622183 -16.3195
ltibia 33.3144
lfoot 13.3391 9.01821
ltoes -2.76865
167
root 8.16858 20.7434 -15.6152 -173.76 -2.122 -181.329
lowerback 5.04482 -1.10922 -5.48077
upperback -2.57431 -1.91073 0.16995
thorax -5.33565 -0.760415 3.43501
lowerneck -9.05075 -6.91527 -15.8239
upperneck 17.8988 -9.58956 18.0479
head 8.7279 -3.75698 7.91491
rclavicle 2.80908e-014 9.93923e-015
rhumerus -6.56321 11.001 -47.7775
rradius 124.876
rwrist -13.8712
rhand -35.5917 -18.8601
rfingers 7.12502
rthumb -8.71584 -48.6601
lclavicle 2.80908e-014 9.93923e-015
lhumerus 0.93151 5.86739 42.8352
lradius 106.066
lwrist 8.63337
lhand -35.3458 13.4561
lfingers 7.12502
lthumb -8.47852 43.2659
rfemur -4.81531 -15.797 13.391
rtibia 40.8232
rfoot -24.9705 14.1233
rtoes -15.5373
lfemur -3.67293 1.42241 -16.0104
ltibia 33.3919
lfoot 13.2699 8.95332
ltoes -2.44991
